<?xml version="1.0" encoding="utf-8"?>
<svg xmlns="http://www.w3.org/2000/svg" version="1.1" width="1400" height="800">

<line x1="100" y1="100" x2="100" y2="700" stroke="black" />
<line x1="100" y1="700" x2="1300" y2="700" stroke="black" />
<text x="100" y="100" fill="black" >cout 2</text>
<text x="1300" y="700" fill="black" >cout 1</text>
<circle cx="210" cy="580" r="5" fill="red" />
<text x="210" y="580" fill="black" >0</text>
<circle cx="230" cy="598" r="5" fill="red" />
<text x="230" y="598" fill="black" >1</text>
<circle cx="290" cy="602" r="5" fill="red" />
<text x="290" y="602" fill="black" >2</text>
<circle cx="320" cy="593" r="5" fill="red" />
<text x="320" y="593" fill="black" >3</text>
<circle cx="270" cy="568" r="5" fill="red" />
<text x="270" y="568" fill="black" >4</text>
<circle cx="290" cy="610" r="5" fill="red" />
<text x="290" y="610" fill="black" >5</text>
<circle cx="350" cy="612" r="5" fill="red" />
<text x="350" y="612" fill="black" >6</text>
<circle cx="260" cy="576" r="5" fill="red" />
<text x="260" y="576" fill="black" >7</text>
<circle cx="280" cy="606" r="5" fill="red" />
<text x="280" y="606" fill="black" >8</text>
<circle cx="340" cy="616" r="5" fill="red" />
<text x="340" y="616" fill="black" >9</text>
<circle cx="290" cy="592" r="5" fill="red" />
<text x="290" y="592" fill="black" >10</text>
<circle cx="310" cy="622" r="5" fill="red" />
<text x="310" y="622" fill="black" >11</text>
<circle cx="370" cy="624" r="5" fill="red" />
<text x="370" y="624" fill="black" >12</text>


</svg>
