<?xml version="1.0" encoding="utf-8"?>
<svg xmlns="http://www.w3.org/2000/svg" version="1.1" width="1400" height="800">

<circle cx="200" cy="100" r="5" fill="red" />
<text x="210" y="90" fill="violet" >0</text>
<circle cx="300" cy="100" r="5" fill="red" />
<text x="310" y="90" fill="violet" >1</text>
<circle cx="200" cy="200" r="5" fill="red" />
<text x="210" y="190" fill="violet" >2</text>
<circle cx="300" cy="200" r="5" fill="red" />
<text x="310" y="190" fill="violet" >3</text>
<line x1="200" y1="100" x2="200" y2="200" stroke="black" />
<text x="200" y="150" fill="green" >1</text>
<line x1="300" y1="100" x2="200" y2="200" stroke="black" />
<text x="250" y="150" fill="green" >2</text>
<line x1="200" y1="200" x2="300" y2="200" stroke="black" />
<text x="250" y="200" fill="green" >4</text>
<circle cx="200" cy="100" r="5" fill="red" />
<text x="210" y="90" fill="violet" >0</text>
<circle cx="300" cy="100" r="5" fill="red" />
<text x="310" y="90" fill="violet" >1</text>
<circle cx="200" cy="200" r="5" fill="red" />
<text x="210" y="190" fill="violet" >2</text>
<circle cx="300" cy="200" r="5" fill="red" />
<text x="310" y="190" fill="violet" >3</text>
<line x1="200" y1="100" x2="200" y2="200" stroke="black" />
<text x="200" y="150" fill="green" >1</text>
<line x1="300" y1="100" x2="200" y2="200" stroke="black" />
<text x="250" y="150" fill="green" >2</text>
<line x1="300" y1="100" x2="300" y2="200" stroke="black" />
<text x="300" y="150" fill="green" >3</text>
<circle cx="200" cy="100" r="5" fill="red" />
<text x="210" y="90" fill="violet" >0</text>
<circle cx="300" cy="100" r="5" fill="red" />
<text x="310" y="90" fill="violet" >1</text>
<circle cx="200" cy="200" r="5" fill="red" />
<text x="210" y="190" fill="violet" >2</text>
<circle cx="300" cy="200" r="5" fill="red" />
<text x="310" y="190" fill="violet" >3</text>
<line x1="200" y1="100" x2="300" y2="100" stroke="black" />
<text x="250" y="100" fill="green" >0</text>
<line x1="300" y1="100" x2="300" y2="200" stroke="black" />
<text x="300" y="150" fill="green" >3</text>
<line x1="200" y1="200" x2="300" y2="200" stroke="black" />
<text x="250" y="200" fill="green" >4</text>
<circle cx="200" cy="100" r="5" fill="red" />
<text x="210" y="90" fill="violet" >0</text>
<circle cx="300" cy="100" r="5" fill="red" />
<text x="310" y="90" fill="violet" >1</text>
<circle cx="200" cy="200" r="5" fill="red" />
<text x="210" y="190" fill="violet" >2</text>
<circle cx="300" cy="200" r="5" fill="red" />
<text x="310" y="190" fill="violet" >3</text>
<line x1="200" y1="100" x2="300" y2="100" stroke="black" />
<text x="250" y="100" fill="green" >0</text>
<line x1="300" y1="100" x2="200" y2="200" stroke="black" />
<text x="250" y="150" fill="green" >2</text>
<line x1="200" y1="200" x2="300" y2="200" stroke="black" />
<text x="250" y="200" fill="green" >4</text>
<circle cx="200" cy="100" r="5" fill="red" />
<text x="210" y="90" fill="violet" >0</text>
<circle cx="300" cy="100" r="5" fill="red" />
<text x="310" y="90" fill="violet" >1</text>
<circle cx="200" cy="200" r="5" fill="red" />
<text x="210" y="190" fill="violet" >2</text>
<circle cx="300" cy="200" r="5" fill="red" />
<text x="310" y="190" fill="violet" >3</text>
<line x1="200" y1="100" x2="300" y2="100" stroke="black" />
<text x="250" y="100" fill="green" >0</text>
<line x1="300" y1="100" x2="200" y2="200" stroke="black" />
<text x="250" y="150" fill="green" >2</text>
<line x1="300" y1="100" x2="300" y2="200" stroke="black" />
<text x="300" y="150" fill="green" >3</text>
<circle cx="200" cy="100" r="5" fill="red" />
<text x="210" y="90" fill="violet" >0</text>
<circle cx="300" cy="100" r="5" fill="red" />
<text x="310" y="90" fill="violet" >1</text>
<circle cx="200" cy="200" r="5" fill="red" />
<text x="210" y="190" fill="violet" >2</text>
<circle cx="300" cy="200" r="5" fill="red" />
<text x="310" y="190" fill="violet" >3</text>
<line x1="200" y1="100" x2="300" y2="100" stroke="black" />
<text x="250" y="100" fill="green" >0</text>
<line x1="200" y1="100" x2="200" y2="200" stroke="black" />
<text x="200" y="150" fill="green" >1</text>
<line x1="200" y1="200" x2="300" y2="200" stroke="black" />
<text x="250" y="200" fill="green" >4</text>
<circle cx="200" cy="100" r="5" fill="red" />
<text x="210" y="90" fill="violet" >0</text>
<circle cx="300" cy="100" r="5" fill="red" />
<text x="310" y="90" fill="violet" >1</text>
<circle cx="200" cy="200" r="5" fill="red" />
<text x="210" y="190" fill="violet" >2</text>
<circle cx="300" cy="200" r="5" fill="red" />
<text x="310" y="190" fill="violet" >3</text>
<line x1="200" y1="100" x2="300" y2="100" stroke="black" />
<text x="250" y="100" fill="green" >0</text>
<line x1="200" y1="100" x2="200" y2="200" stroke="black" />
<text x="200" y="150" fill="green" >1</text>
<line x1="300" y1="100" x2="300" y2="200" stroke="black" />
<text x="300" y="150" fill="green" >3</text>


</svg>
