<?xml version="1.0" encoding="utf-8"?>
<svg xmlns="http://www.w3.org/2000/svg" version="1.1" width="1400" height="800">

<circle cx="325" cy="85" r="5" fill="red" />
<text x="335" y="75" fill="violet" >0</text>
<circle cx="275" cy="170" r="5" fill="red" />
<text x="285" y="160" fill="violet" >1</text>
<circle cx="375" cy="170" r="5" fill="red" />
<text x="385" y="160" fill="violet" >2</text>
<circle cx="225" cy="255" r="5" fill="red" />
<text x="235" y="245" fill="violet" >3</text>
<circle cx="325" cy="255" r="5" fill="red" />
<text x="335" y="245" fill="violet" >4</text>
<circle cx="425" cy="255" r="5" fill="red" />
<text x="435" y="245" fill="violet" >5</text>
<circle cx="175" cy="340" r="5" fill="red" />
<text x="185" y="330" fill="violet" >6</text>
<circle cx="275" cy="340" r="5" fill="red" />
<text x="285" y="330" fill="violet" >7</text>
<circle cx="375" cy="340" r="5" fill="red" />
<text x="385" y="330" fill="violet" >8</text>
<circle cx="475" cy="340" r="5" fill="red" />
<text x="485" y="330" fill="violet" >9</text>
<line x1="325" y1="85" x2="275" y2="170" stroke="black" />
<text x="300" y="127.5" fill="green" >0</text>
<line x1="325" y1="85" x2="375" y2="170" stroke="black" />
<text x="350" y="127.5" fill="green" >1</text>
<line x1="275" y1="170" x2="375" y2="170" stroke="black" />
<text x="325" y="170" fill="green" >2</text>
<line x1="275" y1="170" x2="225" y2="255" stroke="black" />
<text x="250" y="212.5" fill="green" >3</text>
<line x1="275" y1="170" x2="325" y2="255" stroke="black" />
<text x="300" y="212.5" fill="green" >4</text>
<line x1="375" y1="170" x2="325" y2="255" stroke="black" />
<text x="350" y="212.5" fill="green" >5</text>
<line x1="375" y1="170" x2="425" y2="255" stroke="black" />
<text x="400" y="212.5" fill="green" >6</text>
<line x1="225" y1="255" x2="325" y2="255" stroke="black" />
<text x="275" y="255" fill="green" >7</text>
<line x1="325" y1="255" x2="425" y2="255" stroke="black" />
<text x="375" y="255" fill="green" >8</text>
<line x1="225" y1="255" x2="175" y2="340" stroke="black" />
<text x="200" y="297.5" fill="green" >9</text>
<line x1="225" y1="255" x2="275" y2="340" stroke="black" />
<text x="250" y="297.5" fill="green" >10</text>
<line x1="325" y1="255" x2="275" y2="340" stroke="black" />
<text x="300" y="297.5" fill="green" >11</text>
<line x1="325" y1="255" x2="375" y2="340" stroke="black" />
<text x="350" y="297.5" fill="green" >12</text>
<line x1="425" y1="255" x2="375" y2="340" stroke="black" />
<text x="400" y="297.5" fill="green" >13</text>
<line x1="425" y1="255" x2="475" y2="340" stroke="black" />
<text x="450" y="297.5" fill="green" >14</text>
<line x1="175" y1="340" x2="275" y2="340" stroke="black" />
<text x="225" y="340" fill="green" >15</text>
<line x1="275" y1="340" x2="375" y2="340" stroke="black" />
<text x="325" y="340" fill="green" >16</text>
<line x1="375" y1="340" x2="475" y2="340" stroke="black" />
<text x="425" y="340" fill="green" >17</text>
<line x1="925" y1="255" x2="1025" y2="255" stroke="red" />
<text x="975" y="255" fill="green" >7</text>
<line x1="1075" y1="170" x2="1025" y2="255" stroke="red" />
<text x="1050" y="212.5" fill="green" >5</text>
<line x1="925" y1="255" x2="875" y2="340" stroke="red" />
<text x="900" y="297.5" fill="green" >9</text>
<line x1="1025" y1="255" x2="975" y2="340" stroke="red" />
<text x="1000" y="297.5" fill="green" >11</text>
<line x1="1075" y1="170" x2="1125" y2="255" stroke="red" />
<text x="1100" y="212.5" fill="green" >6</text>
<line x1="975" y1="170" x2="925" y2="255" stroke="red" />
<text x="950" y="212.5" fill="green" >3</text>
<line x1="1025" y1="85" x2="975" y2="170" stroke="red" />
<text x="1000" y="127.5" fill="green" >0</text>
<line x1="1125" y1="255" x2="1075" y2="340" stroke="red" />
<text x="1100" y="297.5" fill="green" >13</text>
<line x1="1125" y1="255" x2="1175" y2="340" stroke="red" />
<text x="1150" y="297.5" fill="green" >14</text>
<circle cx="1025" cy="85" r="5" fill="black" />
<text x="1035" y="75" fill="violet" >0</text>
<circle cx="975" cy="170" r="5" fill="black" />
<text x="985" y="160" fill="violet" >1</text>
<circle cx="1075" cy="170" r="5" fill="black" />
<text x="1085" y="160" fill="violet" >2</text>
<circle cx="925" cy="255" r="5" fill="black" />
<text x="935" y="245" fill="violet" >3</text>
<circle cx="1025" cy="255" r="5" fill="black" />
<text x="1035" y="245" fill="violet" >4</text>
<circle cx="1125" cy="255" r="5" fill="black" />
<text x="1135" y="245" fill="violet" >5</text>
<circle cx="875" cy="340" r="5" fill="black" />
<text x="885" y="330" fill="violet" >6</text>
<circle cx="975" cy="340" r="5" fill="black" />
<text x="985" y="330" fill="violet" >7</text>
<circle cx="1075" cy="340" r="5" fill="black" />
<text x="1085" y="330" fill="violet" >8</text>
<circle cx="1175" cy="340" r="5" fill="black" />
<text x="1185" y="330" fill="violet" >9</text>


</svg>
