<?xml version="1.0" encoding="utf-8"?>
<svg xmlns="http://www.w3.org/2000/svg" version="1.1" width="1000" height="800">

<line x1="0" y1="0" x2="1000" y2="0" stroke="lightgrey" />
<text x="5" y="-5" fill="lightgrey" >0</text>
<line x1="0" y1="100" x2="1000" y2="100" stroke="lightgrey" />
<text x="5" y="95" fill="lightgrey" >100</text>
<line x1="0" y1="200" x2="1000" y2="200" stroke="lightgrey" />
<text x="5" y="195" fill="lightgrey" >200</text>
<line x1="0" y1="300" x2="1000" y2="300" stroke="lightgrey" />
<text x="5" y="295" fill="lightgrey" >300</text>
<line x1="0" y1="400" x2="1000" y2="400" stroke="lightgrey" />
<text x="5" y="395" fill="lightgrey" >400</text>
<line x1="0" y1="500" x2="1000" y2="500" stroke="lightgrey" />
<text x="5" y="495" fill="lightgrey" >500</text>
<line x1="0" y1="600" x2="1000" y2="600" stroke="lightgrey" />
<text x="5" y="595" fill="lightgrey" >600</text>
<line x1="0" y1="700" x2="1000" y2="700" stroke="lightgrey" />
<text x="5" y="695" fill="lightgrey" >700</text>
<line x1="0" y1="800" x2="1000" y2="800" stroke="lightgrey" />
<text x="5" y="795" fill="lightgrey" >800</text>
<line x1="0" y1="0" x2="0" y2="800" stroke="lightgrey" />
<text x="5" y="15" fill="lightgrey" >0</text>
<line x1="100" y1="0" x2="100" y2="800" stroke="lightgrey" />
<text x="105" y="15" fill="lightgrey" >100</text>
<line x1="200" y1="0" x2="200" y2="800" stroke="lightgrey" />
<text x="205" y="15" fill="lightgrey" >200</text>
<line x1="300" y1="0" x2="300" y2="800" stroke="lightgrey" />
<text x="305" y="15" fill="lightgrey" >300</text>
<line x1="400" y1="0" x2="400" y2="800" stroke="lightgrey" />
<text x="405" y="15" fill="lightgrey" >400</text>
<line x1="500" y1="0" x2="500" y2="800" stroke="lightgrey" />
<text x="505" y="15" fill="lightgrey" >500</text>
<line x1="600" y1="0" x2="600" y2="800" stroke="lightgrey" />
<text x="605" y="15" fill="lightgrey" >600</text>
<line x1="700" y1="0" x2="700" y2="800" stroke="lightgrey" />
<text x="705" y="15" fill="lightgrey" >700</text>
<line x1="800" y1="0" x2="800" y2="800" stroke="lightgrey" />
<text x="805" y="15" fill="lightgrey" >800</text>
<line x1="900" y1="0" x2="900" y2="800" stroke="lightgrey" />
<text x="905" y="15" fill="lightgrey" >900</text>
<line x1="1000" y1="0" x2="1000" y2="800" stroke="lightgrey" />
<text x="1005" y="15" fill="lightgrey" >1000</text>
<line x1="125" y1="255" x2="225" y2="255" stroke="red" />
<text x="175" y="255" fill="green" >7</text>
<line x1="275" y1="170" x2="225" y2="255" stroke="red" />
<text x="250" y="212.5" fill="green" >5</text>
<line x1="125" y1="255" x2="75" y2="340" stroke="red" />
<text x="100" y="297.5" fill="green" >9</text>
<line x1="225" y1="255" x2="175" y2="340" stroke="red" />
<text x="200" y="297.5" fill="green" >11</text>
<line x1="275" y1="170" x2="325" y2="255" stroke="red" />
<text x="300" y="212.5" fill="green" >6</text>
<line x1="175" y1="170" x2="125" y2="255" stroke="red" />
<text x="150" y="212.5" fill="green" >3</text>
<line x1="225" y1="85" x2="175" y2="170" stroke="red" />
<text x="200" y="127.5" fill="green" >0</text>
<line x1="325" y1="255" x2="275" y2="340" stroke="red" />
<text x="300" y="297.5" fill="green" >13</text>
<line x1="325" y1="255" x2="375" y2="340" stroke="red" />
<text x="350" y="297.5" fill="green" >14</text>
<circle cx="225" cy="85" r="5" fill="black" />
<text x="235" y="75" fill="violet" >0</text>
<circle cx="175" cy="170" r="5" fill="black" />
<text x="185" y="160" fill="violet" >1</text>
<circle cx="275" cy="170" r="5" fill="black" />
<text x="285" y="160" fill="violet" >2</text>
<circle cx="125" cy="255" r="5" fill="black" />
<text x="135" y="245" fill="violet" >3</text>
<circle cx="225" cy="255" r="5" fill="black" />
<text x="235" y="245" fill="violet" >4</text>
<circle cx="325" cy="255" r="5" fill="black" />
<text x="335" y="245" fill="violet" >5</text>
<circle cx="75" cy="340" r="5" fill="black" />
<text x="85" y="330" fill="violet" >6</text>
<circle cx="175" cy="340" r="5" fill="black" />
<text x="185" y="330" fill="violet" >7</text>
<circle cx="275" cy="340" r="5" fill="black" />
<text x="285" y="330" fill="violet" >8</text>
<circle cx="375" cy="340" r="5" fill="black" />
<text x="385" y="330" fill="violet" >9</text>


</svg>
