<?xml version="1.0" encoding="utf-8"?>
<svg xmlns="http://www.w3.org/2000/svg" version="1.1" width="1400" height="800">

<circle cx="200" cy="100" r="5" fill="red" />
<text x="210" y="90" fill="violet" >0</text>
<circle cx="300" cy="100" r="5" fill="red" />
<text x="310" y="90" fill="violet" >1</text>
<circle cx="400" cy="100" r="5" fill="red" />
<text x="410" y="90" fill="violet" >2</text>
<circle cx="500" cy="100" r="5" fill="red" />
<text x="510" y="90" fill="violet" >3</text>
<circle cx="200" cy="200" r="5" fill="red" />
<text x="210" y="190" fill="violet" >4</text>
<circle cx="300" cy="200" r="5" fill="red" />
<text x="310" y="190" fill="violet" >5</text>
<circle cx="400" cy="200" r="5" fill="red" />
<text x="410" y="190" fill="violet" >6</text>
<circle cx="500" cy="200" r="5" fill="red" />
<text x="510" y="190" fill="violet" >7</text>
<circle cx="200" cy="300" r="5" fill="red" />
<text x="210" y="290" fill="violet" >8</text>
<circle cx="300" cy="300" r="5" fill="red" />
<text x="310" y="290" fill="violet" >9</text>
<circle cx="400" cy="300" r="5" fill="red" />
<text x="410" y="290" fill="violet" >10</text>
<circle cx="500" cy="300" r="5" fill="red" />
<text x="510" y="290" fill="violet" >11</text>
<circle cx="200" cy="400" r="5" fill="red" />
<text x="210" y="390" fill="violet" >12</text>
<circle cx="300" cy="400" r="5" fill="red" />
<text x="310" y="390" fill="violet" >13</text>
<circle cx="400" cy="400" r="5" fill="red" />
<text x="410" y="390" fill="violet" >14</text>
<circle cx="500" cy="400" r="5" fill="red" />
<text x="510" y="390" fill="violet" >15</text>
<line x1="200" y1="100" x2="300" y2="100" stroke="black" />
<text x="250" y="100" fill="green" >0</text>
<line x1="300" y1="100" x2="400" y2="100" stroke="black" />
<text x="350" y="100" fill="green" >1</text>
<line x1="400" y1="100" x2="500" y2="100" stroke="black" />
<text x="450" y="100" fill="green" >2</text>
<line x1="200" y1="200" x2="300" y2="200" stroke="black" />
<text x="250" y="200" fill="green" >3</text>
<line x1="300" y1="200" x2="400" y2="200" stroke="black" />
<text x="350" y="200" fill="green" >4</text>
<line x1="400" y1="200" x2="500" y2="200" stroke="black" />
<text x="450" y="200" fill="green" >5</text>
<line x1="200" y1="300" x2="300" y2="300" stroke="black" />
<text x="250" y="300" fill="green" >6</text>
<line x1="300" y1="300" x2="400" y2="300" stroke="black" />
<text x="350" y="300" fill="green" >7</text>
<line x1="400" y1="300" x2="500" y2="300" stroke="black" />
<text x="450" y="300" fill="green" >8</text>
<line x1="200" y1="400" x2="300" y2="400" stroke="black" />
<text x="250" y="400" fill="green" >9</text>
<line x1="300" y1="400" x2="400" y2="400" stroke="black" />
<text x="350" y="400" fill="green" >10</text>
<line x1="400" y1="400" x2="500" y2="400" stroke="black" />
<text x="450" y="400" fill="green" >11</text>
<line x1="200" y1="100" x2="200" y2="200" stroke="black" />
<text x="200" y="150" fill="green" >12</text>
<line x1="300" y1="100" x2="300" y2="200" stroke="black" />
<text x="300" y="150" fill="green" >13</text>
<line x1="400" y1="100" x2="400" y2="200" stroke="black" />
<text x="400" y="150" fill="green" >14</text>
<line x1="500" y1="100" x2="500" y2="200" stroke="black" />
<text x="500" y="150" fill="green" >15</text>
<line x1="200" y1="200" x2="200" y2="300" stroke="black" />
<text x="200" y="250" fill="green" >16</text>
<line x1="300" y1="200" x2="300" y2="300" stroke="black" />
<text x="300" y="250" fill="green" >17</text>
<line x1="400" y1="200" x2="400" y2="300" stroke="black" />
<text x="400" y="250" fill="green" >18</text>
<line x1="500" y1="200" x2="500" y2="300" stroke="black" />
<text x="500" y="250" fill="green" >19</text>
<line x1="200" y1="300" x2="200" y2="400" stroke="black" />
<text x="200" y="350" fill="green" >20</text>
<line x1="300" y1="300" x2="300" y2="400" stroke="black" />
<text x="300" y="350" fill="green" >21</text>
<line x1="400" y1="300" x2="400" y2="400" stroke="black" />
<text x="400" y="350" fill="green" >22</text>
<line x1="500" y1="300" x2="500" y2="400" stroke="black" />
<text x="500" y="350" fill="green" >23</text>
<line x1="1200" y1="300" x2="1200" y2="400" stroke="red" />
<text x="1200" y="350" fill="green" >23</text>
<line x1="1200" y1="200" x2="1200" y2="300" stroke="red" />
<text x="1200" y="250" fill="green" >19</text>
<line x1="1100" y1="200" x2="1200" y2="200" stroke="red" />
<text x="1150" y="200" fill="green" >5</text>
<line x1="1100" y1="400" x2="1200" y2="400" stroke="red" />
<text x="1150" y="400" fill="green" >11</text>
<line x1="1100" y1="200" x2="1100" y2="300" stroke="red" />
<text x="1100" y="250" fill="green" >18</text>
<line x1="1000" y1="300" x2="1100" y2="300" stroke="red" />
<text x="1050" y="300" fill="green" >7</text>
<line x1="900" y1="300" x2="1000" y2="300" stroke="red" />
<text x="950" y="300" fill="green" >6</text>
<line x1="900" y1="300" x2="900" y2="400" stroke="red" />
<text x="900" y="350" fill="green" >20</text>
<line x1="900" y1="400" x2="1000" y2="400" stroke="red" />
<text x="950" y="400" fill="green" >9</text>
<line x1="1200" y1="100" x2="1200" y2="200" stroke="red" />
<text x="1200" y="150" fill="green" >15</text>
<line x1="900" y1="200" x2="900" y2="300" stroke="red" />
<text x="900" y="250" fill="green" >16</text>
<line x1="900" y1="200" x2="1000" y2="200" stroke="red" />
<text x="950" y="200" fill="green" >3</text>
<line x1="1000" y1="100" x2="1000" y2="200" stroke="red" />
<text x="1000" y="150" fill="green" >13</text>
<line x1="900" y1="100" x2="1000" y2="100" stroke="red" />
<text x="950" y="100" fill="green" >0</text>
<line x1="1100" y1="100" x2="1100" y2="200" stroke="red" />
<text x="1100" y="150" fill="green" >14</text>
<circle cx="900" cy="100" r="5" fill="black" />
<text x="910" y="90" fill="violet" >0</text>
<circle cx="1000" cy="100" r="5" fill="black" />
<text x="1010" y="90" fill="violet" >1</text>
<circle cx="1100" cy="100" r="5" fill="black" />
<text x="1110" y="90" fill="violet" >2</text>
<circle cx="1200" cy="100" r="5" fill="black" />
<text x="1210" y="90" fill="violet" >3</text>
<circle cx="900" cy="200" r="5" fill="black" />
<text x="910" y="190" fill="violet" >4</text>
<circle cx="1000" cy="200" r="5" fill="black" />
<text x="1010" y="190" fill="violet" >5</text>
<circle cx="1100" cy="200" r="5" fill="black" />
<text x="1110" y="190" fill="violet" >6</text>
<circle cx="1200" cy="200" r="5" fill="black" />
<text x="1210" y="190" fill="violet" >7</text>
<circle cx="900" cy="300" r="5" fill="black" />
<text x="910" y="290" fill="violet" >8</text>
<circle cx="1000" cy="300" r="5" fill="black" />
<text x="1010" y="290" fill="violet" >9</text>
<circle cx="1100" cy="300" r="5" fill="black" />
<text x="1110" y="290" fill="violet" >10</text>
<circle cx="1200" cy="300" r="5" fill="black" />
<text x="1210" y="290" fill="violet" >11</text>
<circle cx="900" cy="400" r="5" fill="black" />
<text x="910" y="390" fill="violet" >12</text>
<circle cx="1000" cy="400" r="5" fill="black" />
<text x="1010" y="390" fill="violet" >13</text>
<circle cx="1100" cy="400" r="5" fill="black" />
<text x="1110" y="390" fill="violet" >14</text>
<circle cx="1200" cy="400" r="5" fill="black" />
<text x="1210" y="390" fill="violet" >15</text>


</svg>
