<?xml version="1.0" encoding="utf-8"?>
<svg xmlns="http://www.w3.org/2000/svg" version="1.1" width="1400" height="800">

<text x="600" y="50" fill="black" >Graphe</text>
<circle cx="200" cy="100" r="5" fill="red" />
<text x="210" y="90" fill="violet" >0</text>
<circle cx="300" cy="100" r="5" fill="red" />
<text x="310" y="90" fill="violet" >1</text>
<circle cx="200" cy="200" r="5" fill="red" />
<text x="210" y="190" fill="violet" >2</text>
<circle cx="300" cy="200" r="5" fill="red" />
<text x="310" y="190" fill="violet" >3</text>
<line x1="200" y1="100" x2="300" y2="100" stroke="black" />
<text x="250" y="100" fill="green" >0</text>
<line x1="200" y1="100" x2="200" y2="200" stroke="black" />
<text x="200" y="150" fill="green" >1</text>
<line x1="300" y1="100" x2="200" y2="200" stroke="black" />
<text x="250" y="150" fill="green" >2</text>
<line x1="300" y1="100" x2="300" y2="200" stroke="black" />
<text x="300" y="150" fill="green" >3</text>
<line x1="200" y1="200" x2="300" y2="200" stroke="black" />
<text x="250" y="200" fill="green" >4</text>
<line x1="900" y1="100" x2="900" y2="200" stroke="red" />
<text x="900" y="150" fill="green" >1</text>
<line x1="1000" y1="100" x2="900" y2="200" stroke="red" />
<text x="950" y="150" fill="green" >2</text>
<line x1="900" y1="200" x2="1000" y2="200" stroke="red" />
<text x="950" y="200" fill="green" >4</text>
<circle cx="900" cy="100" r="5" fill="black" />
<text x="910" y="90" fill="violet" >0</text>
<circle cx="1000" cy="100" r="5" fill="black" />
<text x="1010" y="90" fill="violet" >1</text>
<circle cx="900" cy="200" r="5" fill="black" />
<text x="910" y="190" fill="violet" >2</text>
<circle cx="1000" cy="200" r="5" fill="black" />
<text x="1010" y="190" fill="violet" >3</text>
<text x="800" y="100" fill="black" >(11;20)</text>
<line x1="1000" y1="470" x2="1000" y2="570" stroke="red" />
<text x="1000" y="520" fill="green" >3</text>
<line x1="900" y1="470" x2="1000" y2="470" stroke="red" />
<text x="950" y="470" fill="green" >0</text>
<line x1="900" y1="470" x2="900" y2="570" stroke="red" />
<text x="900" y="520" fill="green" >1</text>
<circle cx="900" cy="470" r="5" fill="black" />
<text x="910" y="460" fill="violet" >0</text>
<circle cx="1000" cy="470" r="5" fill="black" />
<text x="1010" y="460" fill="violet" >1</text>
<circle cx="900" cy="570" r="5" fill="black" />
<text x="910" y="560" fill="violet" >2</text>
<circle cx="1000" cy="570" r="5" fill="black" />
<text x="1010" y="560" fill="violet" >3</text>
<text x="800" y="500" fill="black" >(18;14)</text>


</svg>
